<?xml version="1.0" encoding="UTF-8" standalone="no"?>
<!-- Created with Inkscape (http://www.inkscape.org/) -->

<svg
   width="48"
   height="48"
   viewBox="0 0 48 48"
   version="1.1"
   id="svg1"
   xml:space="preserve"
   inkscape:export-filename="bitmap.svg"
   inkscape:export-xdpi="96"
   inkscape:export-ydpi="96"
   xmlns:inkscape="http://www.inkscape.org/namespaces/inkscape"
   xmlns:sodipodi="http://sodipodi.sourceforge.net/DTD/sodipodi-0.dtd"
   xmlns="http://www.w3.org/2000/svg"
   xmlns:svg="http://www.w3.org/2000/svg"><sodipodi:namedview
     id="namedview1"
     pagecolor="#ffffff"
     bordercolor="#000000"
     borderopacity="0.25"
     inkscape:showpageshadow="2"
     inkscape:pageopacity="0.0"
     inkscape:pagecheckerboard="0"
     inkscape:deskcolor="#d1d1d1"
     inkscape:document-units="px" /><defs
     id="defs1" /><path
     data-original="#CCCCCC"
     fill="currentColor"
     d="m 18.244546,1.5077307 c -2.31919,0 -4.236386,1.8244288 -4.429652,4.0972341 H 11.279248 A 5.7206666,5.7206666 0 0 0 5.5972341,11.279248 V 40.825717 A 5.7206666,5.7206666 0 0 0 11.279248,46.5 h 25.441504 a 5.7206666,5.7206666 0 0 0 5.682014,-5.674283 V 11.279248 A 5.7206666,5.7206666 0 0 0 36.720752,5.5972341 H 34.185106 A 4.4837657,4.4837657 0 0 0 29.755454,1.5 Z m 0,4.0895034 h 11.518639 c 0.24738,0 0.378801,0.1314207 0.378801,0.3788009 v 3.3319018 c 0,0.2473802 -0.131421,0.3788009 -0.378801,0.3788009 H 18.244546 c -0.247381,0 -0.386532,-0.1314207 -0.386532,-0.3788009 V 5.9760351 c 0,-0.2473802 0.139151,-0.3865315 0.386532,-0.3865315 z m -6.965298,4.0972343 h 2.535646 c 0.200997,2.2573436 2.118193,4.0817726 4.429652,4.0817726 h 11.518639 a 4.4837657,4.4837657 0 0 0 4.429651,-4.0895033 h 2.535647 a 1.5461261,1.5461261 0 0 1 1.59251,1.5925103 v 29.546469 a 1.5461261,1.5461261 0 0 1 -1.59251,1.58478 H 11.286978 A 1.5461261,1.5461261 0 0 1 9.6944683,40.825717 V 11.279248 A 1.5461261,1.5461261 0 0 1 11.286978,9.6867377 Z"
     id="path1"
     style="fill:#cccccc;fill-opacity:1;stroke-width:7.73063" /></svg>
